<svg xmlns="http://www.w3.org/2000/svg" width="1200" height="630" viewBox="0 0 1200 630"><defs><linearGradient id="bgGrad" x1="0%" x2="100%" y1="0%" y2="100%"><stop offset="0%" style="stop-color:#0f1117;stop-opacity:1"/><stop offset="100%" style="stop-color:#1a1d27;stop-opacity:1"/></linearGradient><linearGradient id="accentGrad" x1="0%" x2="0%" y1="0%" y2="100%"><stop offset="0%" style="stop-color:#6366f1;stop-opacity:.9"/><stop offset="100%" style="stop-color:#4f52cc;stop-opacity:.6"/></linearGradient><linearGradient id="successGrad" x1="0%" x2="0%" y1="0%" y2="100%"><stop offset="0%" style="stop-color:#22c55e;stop-opacity:.9"/><stop offset="100%" style="stop-color:#16a34a;stop-opacity:.6"/></linearGradient><linearGradient id="warnGrad" x1="0%" x2="0%" y1="0%" y2="100%"><stop offset="0%" style="stop-color:#f59e0b;stop-opacity:.9"/><stop offset="100%" style="stop-color:#d97706;stop-opacity:.6"/></linearGradient><filter id="glow"><feGaussianBlur result="coloredBlur" stdDeviation="8"/><feMerge><feMergeNode in="coloredBlur"/><feMergeNode in="SourceGraphic"/></feMerge></filter><filter id="softglow"><feGaussianBlur result="coloredBlur" stdDeviation="3"/><feMerge><feMergeNode in="coloredBlur"/><feMergeNode in="SourceGraphic"/></feMerge></filter></defs><rect width="1200" height="630" fill="url(#bgGrad)"/><g opacity=".04"><line x1="0" x2="1200" y1="105" y2="105" stroke="#6366f1" stroke-width="1"/><line x1="0" x2="1200" y1="210" y2="210" stroke="#6366f1" stroke-width="1"/><line x1="0" x2="1200" y1="315" y2="315" stroke="#6366f1" stroke-width="1"/><line x1="0" x2="1200" y1="420" y2="420" stroke="#6366f1" stroke-width="1"/><line x1="0" x2="1200" y1="525" y2="525" stroke="#6366f1" stroke-width="1"/><line x1="120" x2="120" y1="0" y2="630" stroke="#6366f1" stroke-width="1"/><line x1="240" x2="240" y1="0" y2="630" stroke="#6366f1" stroke-width="1"/><line x1="360" x2="360" y1="0" y2="630" stroke="#6366f1" stroke-width="1"/><line x1="480" x2="480" y1="0" y2="630" stroke="#6366f1" stroke-width="1"/><line x1="600" x2="600" y1="0" y2="630" stroke="#6366f1" stroke-width="1"/><line x1="720" x2="720" y1="0" y2="630" stroke="#6366f1" stroke-width="1"/><line x1="840" x2="840" y1="0" y2="630" stroke="#6366f1" stroke-width="1"/><line x1="960" x2="960" y1="0" y2="630" stroke="#6366f1" stroke-width="1"/><line x1="1080" x2="1080" y1="0" y2="630" stroke="#6366f1" stroke-width="1"/></g><ellipse cx="1050" cy="120" fill="#6366f1" opacity=".07" rx="200" ry="150"/><ellipse cx="150" cy="520" fill="#4f46e5" opacity=".06" rx="180" ry="120"/><g filter="url(#softglow)" transform="translate(80, 80)"><rect width="52" height="52" fill="#6366f1" opacity=".2" rx="12"/><rect width="52" height="52" fill="none" stroke="#6366f1" stroke-width="1.5" opacity=".6" rx="12"/><polyline fill="none" stroke="#6366f1" stroke-linecap="round" stroke-linejoin="round" stroke-width="2.5" points="8 38 18 24 28 30 38 16 44 20"/><circle cx="8" cy="38" r="2.5" fill="#6366f1"/><circle cx="18" cy="24" r="2.5" fill="#6366f1"/><circle cx="28" cy="30" r="2.5" fill="#6366f1"/><circle cx="38" cy="16" r="2.5" fill="#6366f1"/><circle cx="44" cy="20" r="2.5" fill="#6366f1"/></g><text x="148" y="115" fill="#e2e8f0" font-family="system-ui, -apple-system, 'Segoe UI', sans-serif" font-size="28" font-weight="700" letter-spacing="-.5">Random Number Checker</text><line x1="80" x2="1120" y1="150" y2="150" stroke="#2e3248" stroke-width="1"/><text x="80" y="240" fill="#e2e8f0" font-family="system-ui, -apple-system, 'Segoe UI', sans-serif" font-size="52" font-weight="800" letter-spacing="-1.5">Zufallszahlen analysieren</text><text x="80" y="300" fill="#6366f1" font-family="system-ui, -apple-system, 'Segoe UI', sans-serif" font-size="52" font-weight="800" letter-spacing="-1.5">und visualisieren.</text><text x="80" y="358" fill="#8892a4" font-family="system-ui, -apple-system, 'Segoe UI', sans-serif" font-size="20" font-weight="400">Statistische Tests für PRNG-Algorithmen · Chi²-Test · Histogramm</text><g transform="translate(80, 390)"><rect width="110" height="32" fill="#252836" stroke="#2e3248" stroke-width="1" rx="6"/><text x="55" y="21" fill="#8892a4" font-family="system-ui, sans-serif" font-size="12" font-weight="500" text-anchor="middle">Math.random()</text></g><g transform="translate(202, 390)"><rect width="60" height="32" fill="#252836" stroke="#2e3248" stroke-width="1" rx="6"/><text x="30" y="21" fill="#8892a4" font-family="system-ui, sans-serif" font-size="12" font-weight="500" text-anchor="middle">LCG</text></g><g transform="translate(274, 390)"><rect width="90" height="32" fill="#252836" stroke="#2e3248" stroke-width="1" rx="6"/><text x="45" y="21" fill="#8892a4" font-family="system-ui, sans-serif" font-size="12" font-weight="500" text-anchor="middle">Xorshift32</text></g><g transform="translate(376, 390)"><rect width="55" height="32" fill="#252836" stroke="#2e3248" stroke-width="1" rx="6"/><text x="27" y="21" fill="#8892a4" font-family="system-ui, sans-serif" font-size="12" font-weight="500" text-anchor="middle">MT19937</text></g><g transform="translate(443, 390)"><rect width="95" height="32" fill="#252836" stroke="#2e3248" stroke-width="1" rx="6"/><text x="47" y="21" fill="#8892a4" font-family="system-ui, sans-serif" font-size="12" font-weight="500" text-anchor="middle">Middle-Square</text></g><g transform="translate(80, 445)"><circle cx="8" cy="8" r="5" fill="#22c55e"/><text x="20" y="13" fill="#8892a4" font-family="system-ui, sans-serif" font-size="14" font-weight="400">Chi²-Test bestanden</text></g><g transform="translate(220, 445)"><circle cx="8" cy="8" r="5" fill="#6366f1"/><text x="20" y="13" fill="#8892a4" font-family="system-ui, sans-serif" font-size="14" font-weight="400">CSV-Export</text></g><g transform="translate(330, 445)"><circle cx="8" cy="8" r="5" fill="#f59e0b"/><text x="20" y="13" fill="#8892a4" font-family="system-ui, sans-serif" font-size="14" font-weight="400">Dark / Light Mode</text></g><rect width="420" height="390" x="720" y="170" fill="#1a1d27" stroke="#2e3248" stroke-width="1" rx="12"/><text x="740" y="205" fill="#8892a4" font-family="system-ui, sans-serif" font-size="13" font-weight="500">Häufigkeitsverteilung</text><text x="1100" y="205" fill="#6366f1" font-family="system-ui, sans-serif" font-size="11" font-weight="500" text-anchor="end">n = 10.000</text><rect width="380" height="300" x="740" y="215" fill="#252836" opacity=".5" rx="6"/><text x="748" y="236" fill="#8892a4" font-family="system-ui, sans-serif" font-size="10">1100</text><text x="748" y="296" fill="#8892a4" font-family="system-ui, sans-serif" font-size="10">900</text><text x="748" y="356" fill="#8892a4" font-family="system-ui, sans-serif" font-size="10">700</text><text x="748" y="416" fill="#8892a4" font-family="system-ui, sans-serif" font-size="10">500</text><text x="748" y="502" fill="#8892a4" font-family="system-ui, sans-serif" font-size="10">0</text><line x1="775" x2="1108" y1="232" y2="232" stroke="#2e3248" stroke-width=".5"/><line x1="775" x2="1108" y1="292" y2="292" stroke="#2e3248" stroke-width=".5"/><line x1="775" x2="1108" y1="352" y2="352" stroke="#2e3248" stroke-width=".5"/><line x1="775" x2="1108" y1="412" y2="412" stroke="#2e3248" stroke-width=".5"/><line x1="775" x2="1108" y1="500" y2="500" stroke="#2e3248" stroke-width=".5"/><rect width="15" height="240" x="778" y="260" fill="url(#accentGrad)" rx="2"/><rect width="15" height="252" x="795" y="248" fill="url(#accentGrad)" rx="2"/><rect width="15" height="228" x="812" y="272" fill="url(#accentGrad)" rx="2"/><rect width="15" height="245" x="829" y="255" fill="url(#accentGrad)" rx="2"/><rect width="15" height="256" x="846" y="244" fill="url(#accentGrad)" rx="2"/><rect width="15" height="232" x="863" y="268" fill="url(#accentGrad)" rx="2"/><rect width="15" height="248" x="880" y="252" fill="url(#accentGrad)" rx="2"/><rect width="15" height="260" x="897" y="240" fill="url(#accentGrad)" rx="2"/><rect width="15" height="238" x="914" y="262" fill="url(#accentGrad)" rx="2"/><rect width="15" height="230" x="931" y="270" fill="url(#accentGrad)" rx="2"/><rect width="15" height="254" x="948" y="246" fill="url(#accentGrad)" rx="2"/><rect width="15" height="242" x="965" y="258" fill="url(#accentGrad)" rx="2"/><rect width="15" height="264" x="982" y="236" fill="url(#accentGrad)" rx="2"/><rect width="15" height="246" x="999" y="254" fill="url(#accentGrad)" rx="2"/><rect width="15" height="234" x="1016" y="266" fill="url(#accentGrad)" rx="2"/><rect width="15" height="258" x="1033" y="242" fill="url(#accentGrad)" rx="2"/><rect width="15" height="250" x="1050" y="250" fill="url(#accentGrad)" rx="2"/><rect width="15" height="226" x="1067" y="274" fill="url(#accentGrad)" rx="2"/><rect width="15" height="244" x="1084" y="256" fill="url(#accentGrad)" rx="2"/><rect width="15" height="236" x="1101" y="264" fill="url(#accentGrad)" rx="2"/><rect width="380" height="28" x="740" y="520" fill="#22c55e" opacity=".12" rx="6"/><rect width="380" height="28" x="740" y="520" fill="none" stroke="#22c55e" stroke-width="1" opacity=".4" rx="6"/><circle cx="758" cy="534" r="5" fill="#22c55e" opacity=".8"/><text x="770" y="539" fill="#22c55e" font-family="system-ui, sans-serif" font-size="12" font-weight="500">Chi²-Test bestanden · p = 0.847 · gleichverteilt ✓</text><line x1="80" x2="1120" y1="590" y2="590" stroke="#2e3248" stroke-width="1"/><text x="80" y="615" fill="#8892a4" font-family="system-ui, sans-serif" font-size="13">random-checker · Pseudozufallszahlen testen und analysieren</text><text x="1120" y="615" fill="#6366f1" font-family="system-ui, sans-serif" font-size="13" font-weight="500" text-anchor="end">vergissberlin/random-checker</text></svg>